<mxfile host="www.draw.io" modified="2019-11-06T18:26:12.314Z" agent="Mozilla/5.0 (Windows NT 10.0; Win64; x64) AppleWebKit/537.36 (KHTML, like Gecko) Chrome/78.0.3904.87 Safari/537.36" etag="CZTuHWiQMV6UpaEmSEBg" version="12.2.2" type="github" pages="1">
  <diagram id="7a_LKrpDPJ6G2shwxeh9" name="Page-1">
    <mxGraphModel dx="1408" dy="701" grid="1" gridSize="10" guides="1" tooltips="1" connect="1" arrows="1" fold="1" page="1" pageScale="1" pageWidth="827" pageHeight="1169" math="1" shadow="0">
      <root>
        <mxCell id="0"/>
        <mxCell id="1" parent="0"/>
        <mxCell id="h_WBOZpWK-lj_75BS1v8-17" value="a)" style="text;html=1;strokeColor=none;fillColor=none;align=center;verticalAlign=middle;whiteSpace=wrap;rounded=0;" parent="1" vertex="1">
          <mxGeometry x="7" y="40" width="40" height="20" as="geometry"/>
        </mxCell>
        <mxCell id="h_WBOZpWK-lj_75BS1v8-18" value="b)" style="text;html=1;strokeColor=none;fillColor=none;align=center;verticalAlign=middle;whiteSpace=wrap;rounded=0;" parent="1" vertex="1">
          <mxGeometry x="7" y="280" width="40" height="20" as="geometry"/>
        </mxCell>
        <mxCell id="Gfi1zAHt-QJwz05imeJw-67" value="" style="group" vertex="1" connectable="0" parent="1">
          <mxGeometry x="62" y="285" width="348" height="160" as="geometry"/>
        </mxCell>
        <mxCell id="h_WBOZpWK-lj_75BS1v8-19" value="blood test" style="ellipse;whiteSpace=wrap;html=1;aspect=fixed;" parent="Gfi1zAHt-QJwz05imeJw-67" vertex="1">
          <mxGeometry x="208.108695652174" y="44.92857142857139" width="50.285714285714285" height="50.285714285714285" as="geometry"/>
        </mxCell>
        <mxCell id="Gfi1zAHt-QJwz05imeJw-34" value="" style="edgeStyle=orthogonalEdgeStyle;rounded=0;orthogonalLoop=1;jettySize=auto;html=1;" edge="1" parent="Gfi1zAHt-QJwz05imeJw-67" source="h_WBOZpWK-lj_75BS1v8-20" target="h_WBOZpWK-lj_75BS1v8-19">
          <mxGeometry relative="1" as="geometry">
            <mxPoint x="158" y="70" as="targetPoint"/>
          </mxGeometry>
        </mxCell>
        <mxCell id="h_WBOZpWK-lj_75BS1v8-20" value="nutrient inputs" style="ellipse;whiteSpace=wrap;html=1;aspect=fixed;" parent="Gfi1zAHt-QJwz05imeJw-67" vertex="1">
          <mxGeometry y="45" width="50" height="50" as="geometry"/>
        </mxCell>
        <mxCell id="h_WBOZpWK-lj_75BS1v8-21" value="&lt;b&gt;b&lt;/b&gt;" style="ellipse;whiteSpace=wrap;html=1;aspect=fixed;strokeWidth=3;" parent="Gfi1zAHt-QJwz05imeJw-67" vertex="1">
          <mxGeometry x="174" y="105" width="30" height="30" as="geometry"/>
        </mxCell>
        <mxCell id="h_WBOZpWK-lj_75BS1v8-22" value="" style="endArrow=classic;html=1;exitX=1;exitY=0;exitDx=0;exitDy=0;" parent="Gfi1zAHt-QJwz05imeJw-67" source="h_WBOZpWK-lj_75BS1v8-21" target="h_WBOZpWK-lj_75BS1v8-19" edge="1">
          <mxGeometry width="50" height="50" relative="1" as="geometry">
            <mxPoint x="145" y="145" as="sourcePoint"/>
            <mxPoint x="195" y="95" as="targetPoint"/>
          </mxGeometry>
        </mxCell>
        <mxCell id="Gfi1zAHt-QJwz05imeJw-18" value="" style="endArrow=classic;html=1;entryX=0;entryY=0;entryDx=0;entryDy=0;exitX=1;exitY=1;exitDx=0;exitDy=0;" edge="1" parent="Gfi1zAHt-QJwz05imeJw-67" source="Gfi1zAHt-QJwz05imeJw-15" target="h_WBOZpWK-lj_75BS1v8-19">
          <mxGeometry width="50" height="50" relative="1" as="geometry">
            <mxPoint x="172" y="39" as="sourcePoint"/>
            <mxPoint x="208" y="65" as="targetPoint"/>
          </mxGeometry>
        </mxCell>
        <mxCell id="Gfi1zAHt-QJwz05imeJw-19" value="\(\sim Normal(0,\Sigma_b)&lt;br&gt;\)" style="text;html=1;resizable=0;autosize=1;align=center;verticalAlign=middle;points=[];fillColor=none;strokeColor=none;rounded=0;" vertex="1" parent="Gfi1zAHt-QJwz05imeJw-67">
          <mxGeometry x="181" y="105" width="160" height="30" as="geometry"/>
        </mxCell>
        <mxCell id="Gfi1zAHt-QJwz05imeJw-22" value="&lt;font style=&quot;font-size: 10px&quot;&gt;\(\beta\)&lt;br&gt;&amp;nbsp;prior&lt;/font&gt;" style="ellipse;whiteSpace=wrap;html=1;aspect=fixed;strokeWidth=3;" vertex="1" parent="Gfi1zAHt-QJwz05imeJw-67">
          <mxGeometry x="105" width="40" height="40" as="geometry"/>
        </mxCell>
        <mxCell id="Gfi1zAHt-QJwz05imeJw-23" value="" style="endArrow=classic;html=1;exitX=1;exitY=0.5;exitDx=0;exitDy=0;entryX=0;entryY=0.5;entryDx=0;entryDy=0;" edge="1" parent="Gfi1zAHt-QJwz05imeJw-67" source="Gfi1zAHt-QJwz05imeJw-22" target="Gfi1zAHt-QJwz05imeJw-15">
          <mxGeometry width="50" height="50" relative="1" as="geometry">
            <mxPoint x="182.14213562373106" y="49.142135623731065" as="sourcePoint"/>
            <mxPoint x="107" y="45" as="targetPoint"/>
          </mxGeometry>
        </mxCell>
        <mxCell id="Gfi1zAHt-QJwz05imeJw-29" value="" style="group" vertex="1" connectable="0" parent="Gfi1zAHt-QJwz05imeJw-67">
          <mxGeometry x="144" y="5" width="90" height="30" as="geometry"/>
        </mxCell>
        <mxCell id="Gfi1zAHt-QJwz05imeJw-15" value="" style="ellipse;whiteSpace=wrap;html=1;aspect=fixed;strokeWidth=3;" vertex="1" parent="Gfi1zAHt-QJwz05imeJw-29">
          <mxGeometry x="30" width="30" height="30" as="geometry"/>
        </mxCell>
        <mxCell id="Gfi1zAHt-QJwz05imeJw-17" value="&lt;span style=&quot;font-family: &amp;quot;courier new&amp;quot; , &amp;quot;courier&amp;quot; , monospace ; font-size: 14px ; text-align: left ; white-space: normal ; background-color: rgb(255 , 255 , 255)&quot;&gt;\(\beta\)&lt;/span&gt;" style="text;html=1;resizable=0;autosize=1;align=center;verticalAlign=middle;points=[];fillColor=none;strokeColor=none;rounded=0;fontStyle=1" vertex="1" parent="Gfi1zAHt-QJwz05imeJw-29">
          <mxGeometry y="5" width="90" height="20" as="geometry"/>
        </mxCell>
        <mxCell id="Gfi1zAHt-QJwz05imeJw-30" value="\(\sim Expfam\)" style="text;html=1;resizable=0;autosize=1;align=center;verticalAlign=middle;points=[];fillColor=none;strokeColor=none;rounded=0;" vertex="1" parent="Gfi1zAHt-QJwz05imeJw-67">
          <mxGeometry x="248" y="60" width="100" height="20" as="geometry"/>
        </mxCell>
        <mxCell id="Gfi1zAHt-QJwz05imeJw-41" value="&lt;b&gt;\(\sigma_b\)&lt;/b&gt;" style="ellipse;whiteSpace=wrap;html=1;aspect=fixed;strokeWidth=3;" vertex="1" parent="Gfi1zAHt-QJwz05imeJw-67">
          <mxGeometry x="110" y="80" width="30" height="30" as="geometry"/>
        </mxCell>
        <mxCell id="Gfi1zAHt-QJwz05imeJw-57" value="&lt;b&gt;\(\rho_b\)&lt;/b&gt;" style="ellipse;whiteSpace=wrap;html=1;aspect=fixed;strokeWidth=3;" vertex="1" parent="Gfi1zAHt-QJwz05imeJw-67">
          <mxGeometry x="110" y="130" width="30" height="30" as="geometry"/>
        </mxCell>
        <mxCell id="Gfi1zAHt-QJwz05imeJw-65" value="" style="endArrow=classic;html=1;exitX=1;exitY=0.5;exitDx=0;exitDy=0;entryX=0;entryY=0;entryDx=0;entryDy=0;" edge="1" parent="Gfi1zAHt-QJwz05imeJw-67" source="Gfi1zAHt-QJwz05imeJw-41" target="h_WBOZpWK-lj_75BS1v8-21">
          <mxGeometry width="50" height="50" relative="1" as="geometry">
            <mxPoint x="209.6066017177984" y="119.39339828220147" as="sourcePoint"/>
            <mxPoint x="227.0561397582046" y="99.30348155265972" as="targetPoint"/>
          </mxGeometry>
        </mxCell>
        <mxCell id="Gfi1zAHt-QJwz05imeJw-66" value="" style="endArrow=classic;html=1;exitX=1;exitY=0.5;exitDx=0;exitDy=0;entryX=0;entryY=1;entryDx=0;entryDy=0;" edge="1" parent="Gfi1zAHt-QJwz05imeJw-67" source="Gfi1zAHt-QJwz05imeJw-57" target="h_WBOZpWK-lj_75BS1v8-21">
          <mxGeometry width="50" height="50" relative="1" as="geometry">
            <mxPoint x="219.6066017177984" y="129.39339828220147" as="sourcePoint"/>
            <mxPoint x="237.0561397582046" y="109.30348155265972" as="targetPoint"/>
          </mxGeometry>
        </mxCell>
        <mxCell id="Gfi1zAHt-QJwz05imeJw-70" value="G&lt;span style=&quot;font-size: 10px&quot;&gt;i&lt;/span&gt;" style="text;html=1;resizable=0;autosize=1;align=center;verticalAlign=middle;points=[];fillColor=none;strokeColor=none;rounded=0;" vertex="1" parent="Gfi1zAHt-QJwz05imeJw-67">
          <mxGeometry x="297.7573964497041" y="0.21052631578947967" width="30" height="20" as="geometry"/>
        </mxCell>
        <mxCell id="Gfi1zAHt-QJwz05imeJw-39" value="" style="group" vertex="1" connectable="0" parent="1">
          <mxGeometry x="70" y="52" width="320" height="208" as="geometry"/>
        </mxCell>
        <mxCell id="h_WBOZpWK-lj_75BS1v8-1" value="&lt;font style=&quot;font-size: 10px&quot;&gt;Protein&lt;/font&gt;" style="ellipse;whiteSpace=wrap;html=1;aspect=fixed;" parent="Gfi1zAHt-QJwz05imeJw-39" vertex="1">
          <mxGeometry y="16.421052631578945" width="36.49122807017544" height="36.49122807017544" as="geometry"/>
        </mxCell>
        <mxCell id="h_WBOZpWK-lj_75BS1v8-2" value="&lt;font style=&quot;font-size: 10px&quot;&gt;Fs-HDL&lt;/font&gt;" style="ellipse;whiteSpace=wrap;html=1;aspect=fixed;" parent="Gfi1zAHt-QJwz05imeJw-39" vertex="1">
          <mxGeometry x="248.99408284023667" y="25.543859649122805" width="37.40350877192982" height="37.40350877192982" as="geometry"/>
        </mxCell>
        <mxCell id="h_WBOZpWK-lj_75BS1v8-3" value="&lt;font style=&quot;font-size: 10px&quot;&gt;Fat&lt;/font&gt;" style="ellipse;whiteSpace=wrap;html=1;aspect=fixed;" parent="Gfi1zAHt-QJwz05imeJw-39" vertex="1">
          <mxGeometry y="81.19298245614034" width="36.49122807017544" height="36.49122807017544" as="geometry"/>
        </mxCell>
        <mxCell id="h_WBOZpWK-lj_75BS1v8-4" value="&lt;font style=&quot;font-size: 10px&quot;&gt;Carb. hydr.&lt;/font&gt;" style="ellipse;whiteSpace=wrap;html=1;aspect=fixed;" parent="Gfi1zAHt-QJwz05imeJw-39" vertex="1">
          <mxGeometry y="146.87719298245614" width="36.49122807017544" height="36.49122807017544" as="geometry"/>
        </mxCell>
        <mxCell id="h_WBOZpWK-lj_75BS1v8-5" value="&lt;font style=&quot;font-size: 10px&quot;&gt;Fs-INS&lt;/font&gt;" style="ellipse;whiteSpace=wrap;html=1;aspect=fixed;" parent="Gfi1zAHt-QJwz05imeJw-39" vertex="1">
          <mxGeometry x="248.99408284023667" y="128.6315789473684" width="38.315789473684205" height="38.315789473684205" as="geometry"/>
        </mxCell>
        <mxCell id="h_WBOZpWK-lj_75BS1v8-6" value="" style="endArrow=classic;html=1;entryX=0;entryY=0.5;entryDx=0;entryDy=0;exitX=1;exitY=0.5;exitDx=0;exitDy=0;" parent="Gfi1zAHt-QJwz05imeJw-39" source="h_WBOZpWK-lj_75BS1v8-1" target="h_WBOZpWK-lj_75BS1v8-2" edge="1">
          <mxGeometry width="50" height="50" relative="1" as="geometry">
            <mxPoint x="-9.467455621301774" y="235.3684210526315" as="sourcePoint"/>
            <mxPoint x="24.491896063802425" y="202.78696741854634" as="targetPoint"/>
          </mxGeometry>
        </mxCell>
        <mxCell id="h_WBOZpWK-lj_75BS1v8-7" value="" style="endArrow=classic;html=1;entryX=0;entryY=0.5;entryDx=0;entryDy=0;exitX=1;exitY=0.5;exitDx=0;exitDy=0;" parent="Gfi1zAHt-QJwz05imeJw-39" source="h_WBOZpWK-lj_75BS1v8-3" target="h_WBOZpWK-lj_75BS1v8-2" edge="1">
          <mxGeometry width="50" height="50" relative="1" as="geometry">
            <mxPoint x="112.78621044507334" y="124.59147869674183" as="sourcePoint"/>
            <mxPoint x="146.74556213017752" y="92.01002506265661" as="targetPoint"/>
          </mxGeometry>
        </mxCell>
        <mxCell id="h_WBOZpWK-lj_75BS1v8-8" value="" style="endArrow=classic;html=1;exitX=1;exitY=0.5;exitDx=0;exitDy=0;" parent="Gfi1zAHt-QJwz05imeJw-39" source="h_WBOZpWK-lj_75BS1v8-4" target="h_WBOZpWK-lj_75BS1v8-5" edge="1">
          <mxGeometry width="50" height="50" relative="1" as="geometry">
            <mxPoint x="105.99434010805251" y="150.65664160401002" as="sourcePoint"/>
            <mxPoint x="139.9536917931567" y="118.07518796992477" as="targetPoint"/>
          </mxGeometry>
        </mxCell>
        <mxCell id="h_WBOZpWK-lj_75BS1v8-9" value="" style="endArrow=none;dashed=1;html=1;" parent="Gfi1zAHt-QJwz05imeJw-39" edge="1">
          <mxGeometry width="50" height="50" relative="1" as="geometry">
            <mxPoint x="14.201183431952662" y="208" as="sourcePoint"/>
            <mxPoint x="13.913043478260871" y="189.55889724310777" as="targetPoint"/>
          </mxGeometry>
        </mxCell>
        <mxCell id="h_WBOZpWK-lj_75BS1v8-11" value="" style="endArrow=classic;html=1;exitX=1;exitY=0.5;exitDx=0;exitDy=0;entryX=0;entryY=0.5;entryDx=0;entryDy=0;" parent="Gfi1zAHt-QJwz05imeJw-39" source="h_WBOZpWK-lj_75BS1v8-4" target="h_WBOZpWK-lj_75BS1v8-2" edge="1">
          <mxGeometry width="50" height="50" relative="1" as="geometry">
            <mxPoint x="44.86750707486494" y="163.68922305764409" as="sourcePoint"/>
            <mxPoint x="248.62361718549016" y="59.42857142857142" as="targetPoint"/>
          </mxGeometry>
        </mxCell>
        <mxCell id="h_WBOZpWK-lj_75BS1v8-12" value="" style="endArrow=classic;html=1;exitX=1;exitY=0.5;exitDx=0;exitDy=0;entryX=0;entryY=0.5;entryDx=0;entryDy=0;" parent="Gfi1zAHt-QJwz05imeJw-39" source="h_WBOZpWK-lj_75BS1v8-3" edge="1" target="h_WBOZpWK-lj_75BS1v8-5">
          <mxGeometry width="50" height="50" relative="1" as="geometry">
            <mxPoint x="44.86750707486494" y="98.52631578947368" as="sourcePoint"/>
            <mxPoint x="248.62361718549016" y="144.14035087719296" as="targetPoint"/>
          </mxGeometry>
        </mxCell>
        <mxCell id="h_WBOZpWK-lj_75BS1v8-13" value="" style="endArrow=classic;html=1;exitX=1;exitY=0.5;exitDx=0;exitDy=0;entryX=0;entryY=0.5;entryDx=0;entryDy=0;" parent="Gfi1zAHt-QJwz05imeJw-39" source="h_WBOZpWK-lj_75BS1v8-1" edge="1" target="h_WBOZpWK-lj_75BS1v8-5">
          <mxGeometry width="50" height="50" relative="1" as="geometry">
            <mxPoint x="-77.38615899151017" y="92.01002506265661" as="sourcePoint"/>
            <mxPoint x="248.62361718549016" y="144.14035087719296" as="targetPoint"/>
          </mxGeometry>
        </mxCell>
        <mxCell id="Gfi1zAHt-QJwz05imeJw-1" value="" style="strokeWidth=2;html=1;shape=mxgraph.flowchart.annotation_1;align=left;pointerEvents=1;rotation=180;" vertex="1" parent="Gfi1zAHt-QJwz05imeJw-39">
          <mxGeometry x="272.6627218934911" width="47.337278106508876" height="78.45614035087719" as="geometry"/>
        </mxCell>
        <mxCell id="Gfi1zAHt-QJwz05imeJw-3" value="" style="strokeWidth=2;html=1;shape=mxgraph.flowchart.annotation_1;align=left;pointerEvents=1;rotation=180;" vertex="1" parent="Gfi1zAHt-QJwz05imeJw-39">
          <mxGeometry x="272.6627218934911" y="104" width="47.337278106508876" height="79.36842105263158" as="geometry"/>
        </mxCell>
        <mxCell id="Gfi1zAHt-QJwz05imeJw-10" value="" style="endArrow=none;dashed=1;html=1;" edge="1" parent="Gfi1zAHt-QJwz05imeJw-39">
          <mxGeometry width="50" height="50" relative="1" as="geometry">
            <mxPoint x="265.74736300488803" y="203.89473684210526" as="sourcePoint"/>
            <mxPoint x="265.74736300488803" y="171.31328320801998" as="targetPoint"/>
          </mxGeometry>
        </mxCell>
        <mxCell id="Gfi1zAHt-QJwz05imeJw-2" value="G&lt;sub&gt;1&lt;/sub&gt;" style="text;html=1;resizable=0;autosize=1;align=center;verticalAlign=middle;points=[];fillColor=none;strokeColor=none;rounded=0;" vertex="1" parent="Gfi1zAHt-QJwz05imeJw-39">
          <mxGeometry x="288.7573964497041" y="7.298245614035087" width="30" height="20" as="geometry"/>
        </mxCell>
        <mxCell id="Gfi1zAHt-QJwz05imeJw-4" value="G&lt;span style=&quot;font-size: 10px&quot;&gt;2&lt;/span&gt;" style="text;html=1;resizable=0;autosize=1;align=center;verticalAlign=middle;points=[];fillColor=none;strokeColor=none;rounded=0;" vertex="1" parent="Gfi1zAHt-QJwz05imeJw-39">
          <mxGeometry x="288.7573964497041" y="112.21052631578947" width="30" height="20" as="geometry"/>
        </mxCell>
      </root>
    </mxGraphModel>
  </diagram>
</mxfile>
